# xmcd CD database file
#
# Track frame offsets:
#	150
#	25389
#	52356
#	81422
#	107501
#	136472
#	145909
#
# Disc length: 2154 seconds
#
# Revision: 0
# Processed by: cddbd v1.5.2PL0 Copyright (c) Steve Scherf et al.
# Submitted via: CDex 1.51
#
DISCID=66086807
DTITLE=Volker Kriegel - Octember Variations
DYEAR=1976
DGENRE=Jazz
TTITLE0=Funk You Very Much
TTITLE1=Ballad Garden and Palm Dreams
TTITLE2=Octember Variation
TTITLE3=Und schön ist die Fahrt
TTITLE4=Dora
TTITLE5=Flugsteig B
TTITLE6=Spiral Crackers
EXTD=YEAR: 1976
EXTT0=
EXTT1=
EXTT2=
EXTT3=
EXTT4=
EXTT5=
EXTT6=
PLAYORDER=
